<svg width="100" height="100" viewBox="0 0 100 100" fill="none" xmlns="http://www.w3.org/2000/svg">
  <title>Anthony Fu @ antfu.me</title>
  <style>
    @media (prefers-reduced-motion) {
      path {
        animation: none !important;
        stroke-dasharray: unset !important;
      }
    }

    @keyframes grow {
      0% {
        stroke-dashoffset: 1px;
        stroke-dasharray: 0 350px;
        opacity: 0;
      }

      10% {
        opacity: 1;
        transform: translate(0, 1%);
      }

      20% {
        transform: translate(0, 0);
      }

      40% {
        stroke-dasharray: 350px 0;
      }

      85% {
        stroke-dasharray: 350px 0;
      }

      95%,
      to {
        stroke-dasharray: 0 350px;
      }
    }

    path {
      stroke-dashoffset: 1px;
      stroke-dasharray: 350px 0;
      animation: grow 10s ease-out forwards infinite;
      transform-origin: center;
      stroke: #303030;
      animation-delay: 0s;
    }

    @media (prefers-color-scheme:dark) {
      path {
        stroke: #fdfdfd;
      }
    }
  </style>
  <path
    d="M 18.4 40.362 L 19.7 38.262 A 11.932 11.932 0 0 1 19.224 37.608 Q 18.991 37.262 18.817 36.941 A 6.027 6.027 0 0 1 18.65 36.612 A 3.165 3.165 0 0 1 18.568 36.42 Q 18.34 35.835 18.6 35.662 A 0.394 0.394 0 0 1 18.714 35.682 Q 18.894 35.738 19.204 35.946 A 5.815 5.815 0 0 1 19.3 36.012 Q 19.662 36.265 20.075 36.701 A 9.612 9.612 0 0 1 20.4 37.062 A 10.207 10.207 0 0 0 21.228 36.03 A 7.442 7.442 0 0 0 21.9 34.862 Q 20.1 31.562 18.75 27.962 Q 17.4 24.362 16.2 20.562 Q 15.2 17.362 14.1 14.362 A 36.163 36.163 0 0 0 12.823 11.338 Q 12.031 9.666 11 7.862 A 1.336 1.336 0 0 0 10.755 7.516 A 1.274 1.274 0 0 0 10.75 7.512 Q 10.6 7.362 10.7 7.262 A 0.272 0.272 0 0 1 10.873 7.183 Q 11.043 7.167 11.306 7.308 A 2.176 2.176 0 0 1 11.4 7.362 A 7.374 7.374 0 0 1 13.504 8.755 Q 14.377 9.563 15.15 10.712 Q 16.8 13.162 18.1 16.062 A 62.137 62.137 0 0 1 20.29 21.633 A 57.253 57.253 0 0 1 20.35 21.812 Q 21.077 23.994 21.6 25.501 A 154.348 154.348 0 0 0 21.9 26.362 L 24 31.862 Q 29.6 23.662 34.75 15.862 A 77.469 77.469 0 0 0 39.502 7.659 A 60.548 60.548 0 0 0 42.5 0.562 L 42.7 0.062 A 0.347 0.347 0 0 1 42.733 0.032 Q 42.904 -0.1 42.95 0.312 Q 42.997 0.733 43 0.847 A 0.55 0.55 0 0 1 43 0.862 A 34.077 34.077 0 0 1 40.078 11.89 A 38.247 38.247 0 0 1 40 12.062 A 89.405 89.405 0 0 1 34.898 21.648 A 98.981 98.981 0 0 1 34.05 23.012 Q 30.6 28.462 26.6 33.962 Q 22.6 39.462 19.2 45.062 Q 17 48.662 15.1 52.662 Q 13.2 56.662 11.85 60.712 Q 10.5 64.762 9.9 68.612 Q 9.3 72.462 9.7 75.662 L 9.7 76.162 Q 9.3 76.162 9.1 75.662 Q 7.7 72.062 7.9 67.962 A 37.221 37.221 0 0 1 8.885 61.167 A 42.594 42.594 0 0 1 9.3 59.562 A 53.982 53.982 0 0 1 11.93 52.27 A 60.661 60.661 0 0 1 12.55 50.912 Q 14.6 46.562 17 42.462 Q 14.3 40.662 12.55 37.912 Q 10.8 35.162 9.5 32.062 Q 7.9 28.362 6.8 24.562 A 714.857 714.857 0 0 1 4.825 17.612 A 654.868 654.868 0 0 1 4.7 17.162 Q 3.7 13.562 2.6 10.312 A 35.277 35.277 0 0 0 1.111 6.592 A 28.879 28.879 0 0 0 0 4.462 A 2.504 2.504 0 0 1 0.002 4.369 Q 0.013 4.074 0.1 4.162 Q 3.2 6.362 4.95 9.562 Q 6.7 12.762 7.85 16.462 Q 9 20.162 10 24.112 Q 11 28.062 12.6 31.662 A 36.721 36.721 0 0 0 14.553 35.493 A 33.002 33.002 0 0 0 15.05 36.312 A 20.496 20.496 0 0 0 17.673 39.64 A 23.488 23.488 0 0 0 18.4 40.362 Z M 29.5 49.462 Q 28 51.862 26.3 54.412 Q 24.6 56.962 22.85 59.362 Q 21.1 61.762 19.5 63.962 Q 17.9 66.162 16.6 67.962 A 9.997 9.997 0 0 1 16.297 68.365 Q 15.985 68.758 15.718 68.996 A 2.913 2.913 0 0 1 15.7 69.012 Q 15.338 69.329 15.221 69.276 A 0.072 0.072 0 0 1 15.2 69.262 A 0.087 0.087 0 0 1 15.112 69.197 Q 15.07 69.078 15.176 68.735 A 3.792 3.792 0 0 1 15.2 68.662 Q 15.4 68.062 15.6 67.562 Q 18.8 59.362 23.65 51.762 Q 28.5 44.162 33.6 36.462 Q 36.7 31.662 39.9 26.812 A 52.321 52.321 0 0 0 43.503 20.362 A 65.592 65.592 0 0 0 45.5 15.662 Q 45.679 15.215 45.658 15.087 A 0.092 0.092 0 0 0 45.65 15.062 Q 45.6 14.962 45.8 14.962 Q 45.986 15.055 45.999 15.321 A 0.839 0.839 0 0 1 46 15.362 L 46 15.962 Q 46 18.162 45.1 20.962 A 43.187 43.187 0 0 1 43.898 24.222 A 55.792 55.792 0 0 1 42.7 26.912 A 116.031 116.031 0 0 1 39.845 32.501 A 127.49 127.49 0 0 1 39.4 33.312 Q 37.6 36.562 35.75 39.562 Q 33.9 42.562 32.25 45.112 Q 31.116 46.865 30.241 48.263 A 138.727 138.727 0 0 0 29.5 49.462 Z M 33.857 33.176 A 250.704 250.704 0 0 0 39 25.562 A 27.522 27.522 0 0 0 39.565 24.624 Q 40.493 23.017 41.45 20.912 Q 42.7 18.162 43.55 15.212 A 47.058 47.058 0 0 0 43.853 14.111 A 41.505 41.505 0 0 0 44.8 9.462 Q 45.2 6.662 44.8 4.562 A 1.209 1.209 0 0 1 44.758 4.466 Q 44.704 4.33 44.65 4.121 A 6.376 6.376 0 0 1 44.6 3.912 Q 44.5 3.462 44.3 3.462 A 0.021 0.021 0 0 0 44.297 3.462 Q 44.21 3.474 44.048 4.227 A 17.526 17.526 0 0 0 44 4.462 Q 43.9 5.962 42.9 8.512 Q 41.9 11.062 40.5 14.012 Q 39.1 16.962 37.4 20.062 Q 35.7 23.162 34.2 25.812 Q 33.263 27.468 32.442 28.851 A 112.586 112.586 0 0 1 31.5 30.412 Q 30.3 32.362 29.9 32.962 A 74.157 74.157 0 0 0 29.313 33.823 Q 29.007 34.278 28.677 34.782 A 134.117 134.117 0 0 0 27.85 36.062 Q 26.7 37.862 25.6 39.762 Q 24.5 41.662 23.5 43.512 A 156.662 156.662 0 0 0 22.904 44.624 Q 22.621 45.158 22.367 45.648 A 87.984 87.984 0 0 0 21.8 46.762 A 1.557 1.557 0 0 0 21.786 46.783 Q 21.588 47.091 21.25 47.912 A 6.289 6.289 0 0 0 21.235 47.948 Q 20.904 48.766 21.1 48.962 A 0.254 0.254 0 0 0 21.244 49.004 Q 21.547 49.004 22.1 48.412 Q 22.8 47.662 23 47.462 Q 27.1 42.562 31.3 36.762 A 293.991 293.991 0 0 0 33.857 33.176 Z M 14.255 19.713 A 189.658 189.658 0 0 0 12.7 14.162 A 11.254 11.254 0 0 0 12.168 12.781 A 15.49 15.49 0 0 0 11.45 11.412 A 16.012 16.012 0 0 0 10.849 10.465 A 18.853 18.853 0 0 0 9.35 8.562 Q 8.1 7.162 6.55 6.062 A 12.956 12.956 0 0 0 5.576 5.433 A 10.602 10.602 0 0 0 3.4 4.462 Q 3.2 4.362 2.9 4.262 Q 2.6 4.162 2.5 4.262 Q 2.323 4.262 2.77 4.729 A 8.225 8.225 0 0 0 2.9 4.862 Q 3.725 5.537 4.691 7.055 A 23.959 23.959 0 0 1 5.35 8.162 A 66.164 66.164 0 0 1 5.853 9.072 A 74.313 74.313 0 0 1 7.95 13.262 A 98.984 98.984 0 0 1 8.845 15.251 A 82.232 82.232 0 0 1 10.15 18.412 A 156.935 156.935 0 0 1 10.297 18.791 Q 10.901 20.362 11.211 21.276 A 17.614 17.614 0 0 1 11.4 21.862 A 44.494 44.494 0 0 0 11.602 22.453 Q 11.711 22.764 11.834 23.104 A 80.465 80.465 0 0 0 12.15 23.962 Q 12.6 25.162 13.1 26.362 Q 13.6 27.562 14.2 28.662 Q 14.8 29.762 15.3 30.462 Q 15.376 30.613 15.624 30.88 A 7.139 7.139 0 0 0 15.8 31.062 A 2.893 2.893 0 0 0 15.825 31.087 Q 16.206 31.458 16.4 31.362 Q 16.544 31.218 16.61 30.945 A 1.863 1.863 0 0 0 16.65 30.712 A 3.238 3.238 0 0 0 16.654 30.67 Q 16.695 30.252 16.6 30.062 A 106.861 106.861 0 0 0 16.325 28.59 A 120.028 120.028 0 0 0 14.85 22.012 A 221.212 221.212 0 0 0 14.255 19.713 Z M 13.3 70.462 A 42.878 42.878 0 0 0 13.035 71.823 Q 12.904 72.567 12.818 73.228 A 23.064 23.064 0 0 0 12.75 73.812 A 32.516 32.516 0 0 0 12.659 74.85 Q 12.618 75.416 12.606 75.918 A 17.686 17.686 0 0 0 12.6 76.362 L 12.6 76.862 A 0.432 0.432 0 0 1 12.585 76.98 Q 12.547 77.113 12.411 77.149 A 0.442 0.442 0 0 1 12.3 77.162 Q 12.1 77.162 11.85 76.912 A 1.523 1.523 0 0 1 11.616 76.614 A 1.291 1.291 0 0 1 11.5 76.362 L 11.1 75.362 A 4.559 4.559 0 0 1 10.916 74.788 A 6.166 6.166 0 0 1 10.8 74.212 Q 10.703 73.583 10.794 72.581 A 13.54 13.54 0 0 1 10.8 72.512 Q 10.9 71.462 11.2 69.862 A 29.238 29.238 0 0 1 11.461 68.826 Q 11.72 67.864 12.1 66.662 A 52.078 52.078 0 0 1 13.356 63.121 A 47.976 47.976 0 0 1 13.4 63.012 Q 13.906 61.746 14.386 60.82 A 13.657 13.657 0 0 1 14.75 60.162 A 5.747 5.747 0 0 1 14.95 59.845 Q 15.37 59.231 15.671 59.231 A 0.285 0.285 0 0 1 15.8 59.262 Q 15.899 59.361 15.851 59.953 A 6.895 6.895 0 0 1 15.85 59.962 A 6.3 6.3 0 0 1 15.778 60.515 Q 15.729 60.796 15.653 61.104 A 10.782 10.782 0 0 1 15.6 61.312 A 86.09 86.09 0 0 1 15.25 62.586 A 78.134 78.134 0 0 1 15.2 62.762 Q 15.016 63.406 14.916 63.712 A 7.343 7.343 0 0 1 14.9 63.762 Q 14.4 65.462 14.05 67.112 Q 13.7 68.762 13.3 70.462 Z"
    stroke="black" stroke-width="1.5" stroke-linecap="round" stroke-linejoin="round" />
</svg>
